Simulation
nRows=23
nColumns=15
endheader
time  TH_x TH_y TH_z SC_y  SC_z  SC_x  AC_y  AC_z  AC_x  GH_y  GH_z  GH_yy  EL_x  PS_y
1.3949999999999996  0.000000  0.000000  0.000000  -26.61400206168261  13.301362918077281  36.90380512367357  73.73467863308531  4.153286955862416  3.275063053961013  31.635362301669172  62.9563888398729  -51.70210912422034  25.79824337415669  120.000000
1.4228999999999996  0.000000  0.000000  0.000000  -26.87241987256395  13.312106528324026  37.939723699229866  73.94581530066533  3.409618319949363  3.2879465879900573  31.509761374174804  62.84710783437521  -51.9134336486554  25.978052453007123  120.000000
1.4507999999999994  0.000000  0.000000  0.000000  -27.026989157092757  13.26541197351613  38.84028056344121  74.09311193753236  2.6701600363962816  3.1460353895350672  31.527946990581118  62.68601953949345  -52.147832545838014  26.11338833120402  120.000000
1.4786999999999995  0.000000  0.000000  0.000000  -27.068940467598768  13.160305390657111  39.59074525682202  74.17293886888234  1.9431051549920062  2.842714010942001  31.680859378731668  62.48288379362109  -52.4039374328459  26.20545301196675  120.000000
1.5065999999999995  0.000000  0.000000  0.000000  -26.994273846499656  12.995615839747089  40.18116464949181  74.18500177205767  1.2372362981366858  2.377071725265032  31.954561084931278  62.249410509709456  -52.67289488647442  26.255079872482323  120.000000
1.5344999999999995  0.000000  0.000000  0.000000  -26.804588223741423  12.77002331847105  40.60687604013499  74.13260376347111  0.5619713176416291  1.7545717159986263  32.33106298592756  61.998395305617365  -52.938861521148986  26.262927714401332  120.000000
1.5623999999999996  0.000000  0.000000  0.000000  -26.506906272817382  12.482341549057416  40.868072065402195  74.02221294319344  -0.0731059899731825  0.9865810374211483  32.78954361832825  61.74273351104131  -53.181401026679154  26.229689075708894  120.000000
1.5902999999999994  0.000000  0.000000  0.000000  -26.112813769164347  12.13189343085844  40.968735172540285  73.86237444817642  -0.6588234754197447  0.08904747960737312  33.307912072352316  61.49414347994952  -53.3793071463564  26.156338812145556  120.000000
1.6181999999999994  0.000000  0.000000  0.000000  -25.63734867624104  11.718861980024213  40.91541413640041  73.6624048063986  -1.1868759389126482  -0.9193570840048858  33.86442686907174  61.2618467743253  -53.51477881560857  26.044401396147258  120.000000
1.6460999999999995  0.000000  0.000000  0.000000  -25.09797237039537  11.244616512784981  40.716020909564435  73.43118820232594  -1.6502311146458903  -2.0189557245315353  34.43916658183779  61.05171773686316  -53.57686000909368  25.896182250443427  120.000000
1.6739999999999995  0.000000  0.000000  0.000000  -24.513543157124804  10.711830351123282  40.37887037462431  73.17634692692538  -2.043315881610914  -3.190326270295705  35.015110414997835  60.86603220533685  -53.56303629583856  25.71473779738961  120.000000
1.7018999999999995  0.000000  0.000000  0.000000  -23.90306459641829  10.124371531119895  39.91207758020381  72.90370582423405  -2.361939344453114  -4.415077869142657  35.57876311601297  60.70372829259146  -53.478276725283116  25.50350233312887  120.000000
1.7297999999999993  0.000000  0.000000  0.000000  -23.284279545336716  9.487142394469096  39.32319342747418  72.61709284349027  -2.6032023865979013  -5.676135534949923  36.12045740087394  60.56099520486465  -53.33195132834305  25.26573760336887  120.000000
1.7576999999999994  0.000000  0.000000  0.000000  -22.672130498711553  8.805877491500372  38.6189373887817  72.3183763257825  -2.7655890006432196  -6.957634687140838  36.6345493900706  60.4318724962235  -53.133870781034766  25.003968129002406  120.000000
1.7855999999999994  0.000000  0.000000  0.000000  -22.07731103463275  8.087023733627536  37.804961275999155  72.00750861519712  -2.8493206267945426  -8.244484978526483  37.11922833831366  60.30869769481836  -52.89054306519748  24.719656499723072  120.000000
1.8134999999999994  0.000000  0.000000  0.000000  -21.50555833128229  7.337812645716147  36.886005171555865  71.68254558217079  -2.856575540752247  -9.522015269702313  37.576058668206585  60.182212065738206  -52.60293015378819  24.41321238827318  120.000000
1.8413999999999995  0.000000  0.000000  0.000000  -20.957952578975426  6.56626082577618  35.866560112010276  71.3397713770316  -2.7914496631687413  -10.775851646523485  38.00928228446221  60.04132283259085  -52.266622612452196  24.084542799400577  120.000000
1.8692999999999993  0.000000  0.000000  0.000000  -20.43220931324305  5.781358172824646  34.75177165642116  70.97394152751005  -2.659841570108631  -11.99189434494793  38.42501485594077  59.872671581419375  -51.87376638848413  23.734225069852474  120.000000
1.8971999999999993  0.000000  0.000000  0.000000  -19.92415616730823  4.9931711282054785  33.548473170849746  70.57855580202859  -2.4693305251754976  -13.156628321847903  38.830508965485706  59.66011937413088  -51.416281756801624  23.364871655254902  120.000000
1.9250999999999994  0.000000  0.000000  0.000000  -19.428878868110427  4.21243917395123  32.26602270324858  70.14649612213212  -2.228989902037455  -14.257685565907785  39.23335898840121  59.38445418197387  -50.88923594738005  22.982364840850813  120.000000
1.9529999999999994  0.000000  0.000000  0.000000  -18.941819893888105  3.4504780889162943  30.91637346257106  69.6709668463958  -1.9493649755663425  -15.28400025910811  39.641109991791375  59.02388261423157  -50.29235500826528  22.596655571994148  120.000000
1.9808999999999994  0.000000  0.000000  0.000000  -18.45927287422063  2.7183158352977213  29.514101566231567  69.14637362228807  -1.6430333441399907  -16.225854013217575  40.06030220370322  58.55532756632763  -49.630175627083716  22.22160243016497  120.000000
2.0087999999999995  0.000000  0.000000  0.000000  -17.978931297205065  2.0255684141841517  28.076341740459466  68.56913961223157  -1.3243955938315308  -17.075388952126143  40.49418082589764  57.9562712126444  -48.91073067436375  21.873418631067178  120.000000
